<svg width="21" height="24" viewBox="0 0 21 24" fill="none" xmlns="http://www.w3.org/2000/svg">
<path d="M10.3123 22.1002L9.60521 22.8073C9.99573 23.1978 10.6289 23.1978 11.0194 22.8073L10.3123 22.1002ZM20.2833 13.5434C20.6738 13.1529 20.6738 12.5197 20.2833 12.1292C19.8928 11.7387 19.2596 11.7387 18.8691 12.1292L20.2833 13.5434ZM11.3123 1.10009C11.3123 0.54781 10.8645 0.100096 10.3123 0.100097C9.75997 0.100099 9.31225 0.547815 9.31225 1.1001L11.3123 1.10009ZM1.83109 12.2047C1.44056 11.8142 0.807399 11.8142 0.416874 12.2047C0.0263499 12.5952 0.0263499 13.2284 0.416874 13.6189L1.83109 12.2047ZM11.0194 22.8073L20.2833 13.5434L18.8691 12.1292L9.60521 21.3931L11.0194 22.8073ZM11.3123 22.1002L11.3123 1.10009L9.31225 1.1001L9.31231 22.1002L11.3123 22.1002ZM11.0194 21.3931L1.83109 12.2047L0.416874 13.6189L9.60521 22.8073L11.0194 21.3931Z" fill="black"/>
</svg>
