<svg width="35" height="34" viewBox="0 0 35 34" fill="none" xmlns="http://www.w3.org/2000/svg">
<path d="M25.4143 25.0892L25.4143 26.0892C25.9666 26.0892 26.4143 25.6415 26.4143 25.0892L25.4143 25.0892ZM26.4143 10.7404C26.4143 10.1882 25.9666 9.74045 25.4143 9.74045C24.862 9.74045 24.4143 10.1882 24.4143 10.7404L26.4143 10.7404ZM9.85788 8.11868C9.46735 7.72816 8.83419 7.72816 8.44366 8.11868C8.05314 8.50921 8.05314 9.14237 8.44367 9.5329L9.85788 8.11868ZM11.1825 24.0892C10.6302 24.0892 10.1825 24.5369 10.1825 25.0892C10.1825 25.6415 10.6302 26.0892 11.1825 26.0892L11.1825 24.0892ZM26.4143 25.0892L26.4143 10.7404L24.4143 10.7404L24.4143 25.0892L26.4143 25.0892ZM26.1214 24.3821L9.85788 8.11868L8.44367 9.5329L24.7072 25.7963L26.1214 24.3821ZM25.4143 24.0892L11.1825 24.0892L11.1825 26.0892L25.4143 26.0892L25.4143 24.0892Z" fill="black"/>
</svg>
